<?xml version="1.0" encoding="UTF-8" standalone="no"?>
<!-- Created with Inkscape (http://www.inkscape.org/) -->

<svg
   xmlns:dc="http://purl.org/dc/elements/1.1/"
   xmlns:cc="http://creativecommons.org/ns#"
   xmlns:rdf="http://www.w3.org/1999/02/22-rdf-syntax-ns#"
   xmlns:svg="http://www.w3.org/2000/svg"
   xmlns="http://www.w3.org/2000/svg"
   xmlns:sodipodi="http://sodipodi.sourceforge.net/DTD/sodipodi-0.dtd"
   xmlns:inkscape="http://www.inkscape.org/namespaces/inkscape"
   width="48"
   height="96"
   id="svg3006"
   version="1.1"
   inkscape:version="0.48.3.1 r9886"
   sodipodi:docname="lamer.svg"
   inkscape:export-filename="/home/vg/project/hackaton/game/TheLammerGame/assets/lamer.png"
   inkscape:export-xdpi="90"
   inkscape:export-ydpi="90">
  <defs
     id="defs3008" />
  <sodipodi:namedview
     id="base"
     pagecolor="#ffffff"
     bordercolor="#666666"
     borderopacity="1.0"
     inkscape:pageopacity="0.0"
     inkscape:pageshadow="2"
     inkscape:zoom="4.5089106"
     inkscape:cx="-1.5333286"
     inkscape:cy="35.914952"
     inkscape:document-units="px"
     inkscape:current-layer="layer1"
     showgrid="false"
     inkscape:window-width="1280"
     inkscape:window-height="761"
     inkscape:window-x="0"
     inkscape:window-y="0"
     inkscape:window-maximized="1" />
  <metadata
     id="metadata3011">
    <rdf:RDF>
      <cc:Work
         rdf:about="">
        <dc:format>image/svg+xml</dc:format>
        <dc:type
           rdf:resource="http://purl.org/dc/dcmitype/StillImage" />
        <dc:title></dc:title>
      </cc:Work>
    </rdf:RDF>
  </metadata>
  <g
     inkscape:label="Layer 1"
     inkscape:groupmode="layer"
     id="layer1"
     transform="translate(0,-956.36218)">
    <rect
       style="color:#000000;fill:#000000;fill-opacity:1;fill-rule:nonzero;stroke:none;stroke-width:8;marker:none;visibility:visible;display:inline;overflow:visible;enable-background:accumulate"
       id="rect3014"
       width="48.126926"
       height="68.752747"
       x="-0.22178306"
       y="5.2907271"
       transform="translate(0,956.36218)" />
    <path
       style="fill:none;stroke:#ffffff;stroke-width:1px;stroke-linecap:butt;stroke-linejoin:miter;stroke-opacity:1"
       d="m 24.174354,9.7263884 c -3.280496,-0.6803351 -6.728687,-0.3683713 -8.871323,1.7742646 -1.484509,1.484509 -4.57426,11.685203 -1.774264,13.085201 5.004736,2.502368 4.484854,2.21783 10.423804,2.21783 1.148294,0 4.638283,0.604196 5.544576,0 2.28864,-1.525759 2.940344,-6.203054 2.217831,-9.093105 C 31.431906,16.57829 30.419818,15.563824 29.940714,14.605616 29.245678,13.215545 26.805009,12.80061 25.948618,11.944219 24.699042,10.694643 25.341484,9.9481715 22.621872,9.9481715"
       id="path3016"
       inkscape:connector-curvature="0"
       transform="translate(0,956.36218)" />
    <path
       style="fill:none;stroke:#ffffff;stroke-width:1px;stroke-linecap:butt;stroke-linejoin:miter;stroke-opacity:1"
       d="m 12.419852,18.597711 c 4.543907,1.365575 9.511846,0.301849 14.194116,0.887132 3.77294,0.471618 7.796011,1.330699 11.532719,1.330699 0.249474,0 3.104963,0.274234 3.104963,0.443566 0,0.295072 -2.735076,-0.40654 -2.88318,-0.443566 C 37.716782,20.65262 32.852346,19.956862 32.60211,19.706626 31.198547,18.303063 33.128879,14.77202 32.158544,12.831351 30.686258,9.886779 28.439539,7.1560216 25.505052,6.1778594 24.620083,5.8828695 23.491038,6.245798 22.621872,5.9560763 21.563523,5.6032932 19.764069,5.507435 18.629777,5.7342933 c -2.793472,0.5586945 -4.799421,3.2469403 -6.653492,5.1010107 -0.453262,0.453262 -0.3973,1.681733 -0.665349,2.21783 -0.197008,0.394018 0.186837,5.101011 0,5.101011 -0.324218,0 1.758616,0.573506 2.217831,0.665349"
       id="path3020"
       inkscape:connector-curvature="0"
       transform="translate(0,956.36218)" />
    <path
       style="fill:none;stroke:#ffffff;stroke-width:1px;stroke-linecap:butt;stroke-linejoin:miter;stroke-opacity:1"
       d="m 24.839703,22.14624 c 0,0.295711 0.295711,0.887132 0,0.887132 -0.295711,0 0,-1.182843 0,-0.887132 0,2.818201 3.445206,1.005592 2.661397,0.221783 -1.070091,-1.07009 -5.001824,1.108915 -2.217831,1.108915"
       id="path3022"
       inkscape:connector-curvature="0"
       transform="translate(0,956.36218)" />
    <path
       style="color:#000000;fill:none;stroke:#ffffff;stroke-width:1;stroke-linecap:round;stroke-linejoin:miter;stroke-miterlimit:4;stroke-opacity:1;stroke-dasharray:none;stroke-dashoffset:0;marker:none;visibility:visible;display:inline;overflow:visible;enable-background:accumulate"
       d="m 17.964428,28.134383 c -0.943906,1.530297 -2.878483,1.760174 -3.548529,3.770312 -0.303669,0.911006 -2.599983,9.376302 -1.552481,10.423804 1.140281,1.140281 4.882232,-0.006 5.544576,-1.330699 0.343037,-0.686074 -0.426738,-7.762407 0.221783,-7.762407 0.295711,0 0,0.591422 0,0.887132 0,1.182843 0,2.365686 0,3.548529 0,1.217818 -1.450058,3.719101 -2.88318,4.435662 -0.591421,0.29571 -1.548361,-1.774265 -0.887132,-1.774265 0.295711,0 -0.164031,0.641086 0,0.887132 0.117889,0.176833 0.836941,0.972928 1.108916,1.108916 1.896671,0.948335 2.252391,-9.34945 2.883179,-9.980238 0.46539,-0.46539 2.163928,-2.271733 3.326746,-1.108915 0.650747,0.650746 -0.41556,0.887132 1.108916,0.887132 1.108915,0 2.21783,0 3.326746,0 0.221783,0 0.665349,-0.221783 0.665349,0 0,0.295711 -0.591422,0 -0.887132,0 -0.193663,0 -1.603897,0.170368 -1.774265,0 -1.220441,-1.220441 -1.895949,-2.278673 -3.548529,-3.104963 -1.077403,-0.538702 -1.774261,-0.08871 -3.104963,-0.887132 z"
       id="path3802"
       inkscape:connector-curvature="0"
       transform="translate(0,956.36218)" />
    <path
       style="color:#000000;fill:none;stroke:#ffffff;stroke-width:1;stroke-linecap:round;stroke-linejoin:miter;stroke-miterlimit:4;stroke-opacity:1;stroke-dasharray:none;stroke-dashoffset:0;marker:none;visibility:visible;display:inline;overflow:visible;enable-background:accumulate"
       d="m 27.944666,33.235393 c -0.364771,5.868067 -1.108915,11.334639 -1.108915,17.299079 0,0.581927 0.340745,4.411869 0.221783,4.435661 -0.51235,0.10247 -9.928846,1.484875 -9.980238,1.330699 -0.17992,-0.539759 0.601598,-12.957699 0.887132,-13.528767"
       id="path3804"
       inkscape:connector-curvature="0"
       transform="translate(0,956.36218)" />
    <path
       style="color:#000000;fill:none;stroke:#ffffff;stroke-width:1;stroke-linecap:round;stroke-linejoin:miter;stroke-miterlimit:4;stroke-opacity:1;stroke-dasharray:none;stroke-dashoffset:0;marker:none;visibility:visible;display:inline;overflow:visible;enable-background:accumulate"
       d="m 17.742645,57.853313 c -0.109217,1.170676 0.129821,2.380138 0,3.548529 -0.04555,0.409958 -2.041666,6.08763 -1.552481,6.209926 3.187072,0.796768 7.572034,0 10.86737,0 0.887132,0 2.264659,0.793475 2.661396,0 1.098817,-2.197633 -3.104962,-8.44873 -3.104962,-10.86737"
       id="path3808"
       inkscape:connector-curvature="0"
       transform="translate(0,956.36218)" />
    <path
       style="color:#000000;fill:none;stroke:#ffffff;stroke-width:1;stroke-linecap:round;stroke-linejoin:miter;stroke-miterlimit:4;stroke-opacity:1;stroke-dasharray:none;stroke-dashoffset:0;marker:none;visibility:visible;display:inline;overflow:visible;enable-background:accumulate"
       d="m 30.827846,67.168202 c 1.047332,0.807582 3.807622,-0.406256 4.657444,0.443566 0.736753,0.736753 0.221281,3.168544 -0.665349,3.548529 -4.391921,1.882252 -10.457025,0.887132 -15.303031,0.887132 -0.541845,0 -2.154957,0.125747 -2.439614,-0.443566 -0.397809,-0.795618 0,-2.636101 0,-3.548529"
       id="path3810"
       inkscape:connector-curvature="0"
       transform="translate(0,956.36218)" />
  </g>
</svg>
